<?xml version="1.0" encoding="UTF-8"?><svg id="Vrstva_2" xmlns="http://www.w3.org/2000/svg" viewBox="0 0 160.01 159.85"><g id="Vrstva_1-2"><path d="m9.54,159.85c-3.11-1.27-4.1-3.63-4.09-6.92.07-30.75.04-61.5.04-92.25v-1.52c-1.44-.84-2.86-1.35-3.86-2.31-2.21-2.13-2.13-10.24-.04-12.5,1.22-1.32,2.78-1.72,4.52-1.71,4.89.02,9.78,0,14.67,0,13.53,0,27.06-.03,40.58.02,3.39.01,6.3-1.63,9.43-2.48.29-.08.51-.6.66-.96,1.07-2.53,2.16-5.06,3.15-7.62.19-.49.16-1.21-.06-1.68-1.13-2.34-2.37-4.62-3.54-6.94-1.18-2.34-.94-4.22.84-6.15,1.23-1.34,2.52-2.63,3.86-3.86,1.94-1.79,3.8-2.03,6.15-.85,2.27,1.15,4.5,2.38,6.81,3.46.55.26,1.38.27,1.96.05,2.47-.93,4.92-1.95,7.33-3.03.53-.24,1.1-.77,1.28-1.3.87-2.45,1.59-4.94,2.39-7.41C102.51,1.15,104.05.02,106.91,0c1.72,0,3.43-.01,5.15,0,2.5.02,4.08,1.12,4.94,3.52.93,2.59,1.75,5.22,2.72,7.79.22.57.81,1.16,1.37,1.42,2.41,1.09,4.85,2.1,7.32,3.04.53.2,1.31.22,1.82-.02,2.3-1.09,4.53-2.32,6.8-3.48,2.44-1.24,4.27-1.03,6.28.82,1.37,1.27,2.69,2.61,3.96,3.98,1.64,1.75,1.89,3.75.8,5.9-1.16,2.27-2.31,4.54-3.53,6.77-.44.81-.45,1.44-.05,2.3,1.06,2.25,2.04,4.55,2.87,6.89.34.97.84,1.4,1.76,1.68,2.14.64,4.23,1.44,6.39,2.02,2.18.58,3.72,1.77,4.5,3.9v8.43c-.88,2.12-2.48,3.31-4.7,3.88-2.21.57-4.38,1.3-6.52,2.1-.61.23-1.25.85-1.52,1.45-1.08,2.35-2.06,4.76-2.98,7.18-.22.58-.25,1.41,0,1.95,1.13,2.4,2.41,4.72,3.6,7.08,1.02,2.02.8,3.96-.71,5.64-1.29,1.43-2.64,2.8-4.06,4.1-2.07,1.91-3.86,2.09-6.41.78-2.22-1.13-4.41-2.34-6.66-3.4-.54-.25-1.37-.2-1.96.02-2.42.92-4.82,1.91-7.18,2.97-.57.26-1.19.83-1.39,1.4-.91,2.54-1.65,5.14-2.52,7.7-.77,2.25-2.35,3.36-4.69,3.4-1.98.03-3.95.02-5.93,0-1.95-.02-3.35-.96-4.27-2.65-.18-.33-.36-.67-.73-1.36,0,1,0,1.56,0,2.12,0,17.95-.05,35.9.04,53.85.02,3.28-1.07,5.51-4.16,6.68H9.54Zm60.01-31.99v26.58h26.5c0-.66,0-1.23,0-1.79,0-7.7,0-15.4,0-23.1,0-13.32-.01-26.64.02-39.96,0-1.18-.18-1.87-1.48-2.26-1.43-.43-2.72-1.29-4.12-1.83-.53-.21-1.31-.24-1.81,0-2.39,1.14-4.71,2.42-7.08,3.6-2.07,1.03-4.05.85-5.77-.74-1.41-1.3-2.79-2.65-4.09-4.07-1.84-2-2.04-3.73-.82-6.14,1.15-2.27,2.38-4.5,3.48-6.8.25-.52.29-1.3.09-1.84-.97-2.57-2.06-5.1-3.13-7.63-.15-.35-.4-.85-.7-.93-3.04-.82-5.87-2.35-9.15-2.34-16.23.05-32.46.02-48.7.02h-1.9v95.8h26.45v-26.45c-.5-.03-.91-.08-1.31-.08-2.66-.05-3.94-.95-3.89-2.76.04-1.74,1.3-2.59,3.87-2.59,11.6,0,23.2,0,34.81,0,.47,0,.94-.01,1.4.04,1.47.15,2.46,1.14,2.52,2.5.06,1.39-.93,2.56-2.45,2.74-.87.1-1.76.02-2.76.02Zm9.33-111.26c-.78.94-1.55,2-2.45,2.93-.69.71-.79,1.27-.31,2.16,1.35,2.46,2.57,4.99,3.88,7.47.67,1.26.57,2.37-.03,3.68-1.45,3.15-2.76,6.36-4,9.6-.49,1.27-1.13,2.15-2.47,2.54-1.84.53-3.66,1.16-5.49,1.75-4.05,1.3-4.02,1.3-3.92,5.55.02.86.37,1.16,1.09,1.38,2.78.84,5.55,1.74,8.33,2.58,1.31.39,2.02,1.21,2.51,2.5,1.25,3.29,2.6,6.54,4.06,9.74.57,1.26.69,2.32.02,3.53-.98,1.77-1.88,3.59-2.82,5.39-1.89,3.64-1.87,3.61,1.13,6.34.67.6,1.16.63,1.91.23,2.57-1.37,5.18-2.65,7.75-4.01,1.17-.62,2.21-.48,3.4.05,3.21,1.44,6.46,2.8,9.74,4.06,1.28.49,2.13,1.18,2.53,2.49.58,1.94,1.22,3.86,1.84,5.79,1.21,3.78,1.21,3.75,5.15,3.63,1-.03,1.46-.34,1.74-1.3.81-2.79,1.73-5.55,2.57-8.34.36-1.2,1.15-1.85,2.31-2.3,3.37-1.32,6.72-2.71,10.03-4.18,1.09-.48,2.04-.64,3.1-.06,1.88,1.01,3.78,1.97,5.67,2.95,3.71,1.93,3.73,1.95,6.39-1.33.29-.36.38-1.16.18-1.58-1.23-2.64-2.54-5.24-3.88-7.82-.69-1.33-.57-2.46.08-3.82,1.4-2.94,2.71-5.95,3.78-9.02.56-1.6,1.33-2.55,2.95-3.02,3.02-.88,6-1.9,9.02-2.88,0-1.5-.07-2.85.02-4.19.06-.94-.37-1.26-1.16-1.5-2.79-.83-5.54-1.76-8.34-2.54-1.48-.41-2.15-1.35-2.66-2.73-1.17-3.15-2.45-6.27-3.87-9.32-.61-1.31-.73-2.41-.04-3.67,1-1.82,1.93-3.68,2.89-5.52,1.85-3.56,1.83-3.54-1.24-6.3-.6-.54-1.05-.61-1.76-.24-2.58,1.34-5.2,2.61-7.79,3.94-1.26.65-2.37.55-3.68-.06-3.1-1.43-6.27-2.72-9.46-3.92-1.28-.48-2.15-1.13-2.55-2.46-.56-1.89-1.2-3.76-1.8-5.64-1.28-4-1.28-3.97-5.46-3.82-.83.03-1.18.32-1.4,1.07-.83,2.79-1.76,5.55-2.54,8.35-.43,1.52-1.36,2.25-2.82,2.78-3.06,1.11-6.09,2.35-9.03,3.74-1.46.69-2.67.85-4.1.06-2.82-1.54-5.7-2.98-9.02-4.7Zm-14.82,111.42h-21.15v26.42h21.15v-26.42ZM5.61,48.05v5.13h53.09v-5.13H5.61Z" style="fill:#051f1f; stroke-width:0px;"/><path d="m78.88,16.59c3.32,1.72,6.2,3.16,9.02,4.7,1.43.79,2.64.63,4.1-.06,2.94-1.39,5.97-2.63,9.03-3.74,1.46-.53,2.39-1.26,2.82-2.78.78-2.8,1.71-5.56,2.54-8.35.22-.75.57-1.04,1.4-1.07,4.19-.15,4.19-.18,5.46,3.82.6,1.88,1.24,3.75,1.8,5.64.39,1.33,1.26,1.98,2.55,2.46,3.2,1.2,6.37,2.49,9.46,3.92,1.31.61,2.42.71,3.68.06,2.59-1.33,5.21-2.6,7.79-3.94.71-.37,1.16-.3,1.76.24,3.07,2.76,3.09,2.74,1.24,6.3-.96,1.84-1.89,3.7-2.89,5.52-.69,1.26-.57,2.36.04,3.67,1.41,3.05,2.69,6.17,3.87,9.32.52,1.38,1.18,2.32,2.66,2.73,2.8.78,5.56,1.72,8.34,2.54.8.24,1.23.56,1.16,1.5-.09,1.34-.02,2.7-.02,4.19-3.02.97-6,2-9.02,2.88-1.62.47-2.4,1.42-2.95,3.02-1.06,3.08-2.37,6.08-3.78,9.02-.65,1.36-.77,2.49-.08,3.82,1.35,2.58,2.65,5.18,3.88,7.82.2.42.11,1.22-.18,1.58-2.66,3.28-2.68,3.26-6.39,1.33-1.89-.98-3.79-1.95-5.67-2.95-1.07-.57-2.02-.42-3.1.06-3.31,1.47-6.66,2.85-10.03,4.18-1.16.46-1.95,1.1-2.31,2.3-.84,2.78-1.76,5.54-2.57,8.34-.28.96-.75,1.27-1.74,1.3-3.93.12-3.93.16-5.15-3.63-.62-1.93-1.25-3.85-1.84-5.79-.4-1.31-1.25-2-2.53-2.49-3.28-1.26-6.53-2.62-9.74-4.06-1.19-.53-2.23-.67-3.4-.05-2.57,1.36-5.18,2.65-7.75,4.01-.75.4-1.24.38-1.91-.23-3.01-2.73-3.03-2.7-1.13-6.34.94-1.8,1.83-3.62,2.82-5.39.67-1.21.56-2.27-.02-3.53-1.46-3.2-2.81-6.45-4.06-9.74-.49-1.29-1.2-2.11-2.51-2.5-2.78-.84-5.55-1.74-8.33-2.58-.73-.22-1.07-.52-1.09-1.38-.1-4.24-.14-4.24,3.92-5.55,1.83-.59,3.65-1.21,5.49-1.75,1.34-.39,1.98-1.27,2.47-2.54,1.24-3.23,2.55-6.45,4-9.6.6-1.31.7-2.42.03-3.68-1.32-2.48-2.54-5.01-3.88-7.47-.49-.89-.38-1.46.31-2.16.9-.93,1.67-1.99,2.45-2.93Zm30.56,63.34c16.14-.02,29.28-13.18,29.28-29.31,0-16.11-13.17-29.29-29.29-29.32-16.18-.03-29.37,13.19-29.33,29.41.04,16.14,13.19,29.24,29.35,29.22Z" style="fill:none; stroke-width:0px;"/><path d="m37.45,77.28c0,1.77.05,3.54-.01,5.3-.12,3.09-2.11,5.21-5.2,5.31-3.63.12-7.28.12-10.91,0-3.11-.11-5.14-2.36-5.18-5.51-.05-3.43-.05-6.86,0-10.29.05-3.19,2.19-5.41,5.38-5.49,3.53-.09,7.07-.09,10.6,0,3.14.08,5.19,2.22,5.31,5.37.06,1.76.01,3.53.01,5.3Zm-5.41-5.26h-10.47v10.45h10.47v-10.45Z" style="fill:#051f1f; stroke-width:0px;"/><path d="m42.81,77.31c0-1.77-.05-3.53.01-5.3.11-3.22,2.2-5.35,5.43-5.41,3.48-.07,6.96-.08,10.44,0,3.2.08,5.36,2.27,5.41,5.46.06,3.48.06,6.96,0,10.44-.06,3.06-2.1,5.27-5.15,5.38-3.68.13-7.38.14-11.06,0-3.01-.12-4.95-2.24-5.07-5.26-.07-1.76-.01-3.53-.01-5.3,0,0,0,0,0,0Zm5.41,5.18h10.47v-10.45h-10.47v10.45Z" style="fill:#051f1f; stroke-width:0px;"/><path d="m90.73,106.77c0,1.66.02,3.33,0,4.99-.05,3.14-2.1,5.34-5.24,5.41-3.63.09-7.28.1-10.91-.01-3.05-.09-5.08-2.3-5.12-5.36-.04-3.48-.03-6.96,0-10.44.03-3.16,2.21-5.4,5.39-5.46,3.48-.06,6.96-.06,10.44,0,3.25.05,5.39,2.29,5.43,5.57.02,1.77,0,3.53,0,5.3Zm-5.4-5.44h-10.43v10.45h10.43v-10.45Z" style="fill:#051f1f; stroke-width:0px;"/><path d="m37.45,106.63c0,1.71.05,3.43,0,5.14-.11,3.27-2.14,5.35-5.41,5.42-3.48.07-6.96.07-10.44,0-3.29-.07-5.41-2.26-5.45-5.56-.04-3.38-.04-6.75,0-10.13.04-3.35,2.25-5.56,5.59-5.6,3.38-.04,6.75-.04,10.13,0,3.31.04,5.46,2.15,5.57,5.44.06,1.76.01,3.53.01,5.3Zm-15.91,5.14h10.46v-10.43h-10.46v10.43Z" style="fill:#051f1f; stroke-width:0px;"/><path d="m53.51,117.21c-1.77,0-3.53.05-5.3-.01-3.26-.11-5.32-2.16-5.39-5.43-.07-3.48-.07-6.96,0-10.44.07-3.28,2.26-5.38,5.58-5.42,3.38-.04,6.75-.04,10.13,0,3.34.04,5.54,2.26,5.58,5.62.04,3.38.04,6.75,0,10.13-.04,3.3-2.17,5.44-5.46,5.55-1.71.06-3.43,0-5.14,0Zm5.18-5.43v-10.44h-10.41v10.44h10.41Z" style="fill:#051f1f; stroke-width:0px;"/><path d="m109.44,79.92c-16.16.02-29.31-13.08-29.35-29.22-.04-16.21,13.15-29.44,29.33-29.41,16.13.03,29.3,13.21,29.29,29.32,0,16.13-13.14,29.29-29.28,29.31Zm10.61-8.1c8.85-2.9,14.96-15.49,12.72-26.19-2.53-12.04-13.91-20-25.42-18.79-12.02,1.26-21.49,11.48-21.61,23.71-.09,8.91,6.95,20.37,13.03,21.1,0-1.25-.09-2.51.02-3.75.12-1.37-.36-2.23-1.44-3.14-8.93-7.55-8.61-21.58.59-28.76,1.74-1.36,3.64-1.81,5.68-.87,2.03.93,3.05,2.6,3.07,4.84.02,1.82.22,3.67-.04,5.46-.37,2.52,1.14,3.75,2.66,5.02,2.22-1.3,3.06-3.08,2.76-5.53-.19-1.49-.05-3.01-.03-4.52.03-2.39.98-4.24,3.23-5.25,2.19-.98,4.13-.42,5.93,1.06,9.05,7.44,9.06,21.35.03,28.81-.48.4-1.08.97-1.13,1.5-.14,1.74-.05,3.5-.05,5.3Zm-2.68-31.83c0,2.68.16,5.01-.06,7.31-.13,1.43-.6,2.95-1.35,4.17-.73,1.21-1.94,2.16-3.04,3.11-1.78,1.54-4.39,1.91-6.23.56-2.99-2.2-5.84-4.59-5.36-8.99.21-1.91.03-3.87.03-6.1-.54.42-.79.59-1.02.79-6.32,5.72-5.54,15.94,1.66,20.79,1.52,1.02,2.16,2.2,2.1,4-.1,2.75-.03,5.5-.03,8.33,3.63.86,7.12.94,10.69-.03,0-2.94.05-5.74-.02-8.55-.04-1.63.58-2.68,1.93-3.61,4.73-3.25,6.71-7.81,5.82-13.48-.51-3.28-2.17-5.97-5.13-8.29Z" style="fill:#051f1f; stroke-width:0px;"/><path d="m117.38,40c2.96,2.32,4.62,5.01,5.13,8.29.89,5.67-1.09,10.23-5.82,13.48-1.35.93-1.98,1.98-1.93,3.61.08,2.8.02,5.61.02,8.55-3.57.97-7.06.89-10.69.03,0-2.83-.07-5.58.03-8.33.06-1.8-.58-2.97-2.1-4-7.2-4.85-7.98-15.07-1.66-20.79.22-.2.47-.37,1.02-.79,0,2.23.17,4.18-.03,6.1-.47,4.4,2.37,6.79,5.36,8.99,1.84,1.35,4.45.98,6.23-.56,1.1-.95,2.3-1.9,3.04-3.11.74-1.22,1.21-2.74,1.35-4.17.22-2.3.06-4.63.06-7.31Z" style="fill:none; stroke-width:0px;"/></g></svg>