<?xml version="1.0" encoding="UTF-8"?><svg id="Vrstva_2" xmlns="http://www.w3.org/2000/svg" viewBox="0 0 129.01 150.59"><g id="Vrstva_1-2"><rect x="3" y="26.13" width="81.83" height="121.45" rx="3.7" ry="3.7" style="fill:none; stroke:#051f1f; stroke-miterlimit:10; stroke-width:6px;"/><path d="m94.14,2.59v26.76c0,1.68,1.43,3.03,3.19,3.03h28.24L94.14,2.59Z" style="fill:none; stroke:#051f1f; stroke-linejoin:bevel; stroke-width:6px;"/><path d="m96.07,3h-48.71c-1.76,0-3.19,1.43-3.19,3.19v19.94h37.47c1.76,0,3.19,1.43,3.19,3.19v95.13h37.99c1.76,0,3.19-1.43,3.19-3.19V32.83L96.07,3Z" style="fill:none; stroke:#051f1f; stroke-miterlimit:10; stroke-width:6px;"/><rect x="47.5" y="39.91" width="25.55" height="34.17" style="fill:none; stroke:#051f1f; stroke-miterlimit:10; stroke-width:6px;"/><line x1="13.05" y1="93.32" x2="75.36" y2="93.32" style="fill:none; stroke:#051f1f; stroke-miterlimit:10; stroke-width:6px;"/><line x1="13.05" y1="109.83" x2="75.36" y2="109.83" style="fill:none; stroke:#051f1f; stroke-miterlimit:10; stroke-width:6px;"/><line x1="13.05" y1="126.34" x2="75.36" y2="126.34" style="fill:none; stroke:#051f1f; stroke-miterlimit:10; stroke-width:6px;"/></g></svg>