<?xml version="1.0" encoding="UTF-8"?><svg id="Vrstva_2" xmlns="http://www.w3.org/2000/svg" xmlns:xlink="http://www.w3.org/1999/xlink" viewBox="0 0 1920 348.72"><defs><clipPath id="clippath"><rect width="1920" height="348.72" style="fill:none; stroke-width:0px;"/></clipPath></defs><g id="Vrstva_1-2"><g style="clip-path:url(#clippath);"><path d="m-28.08,138.9c90.13-18.94,174.86-44.34,250.82-75.18,19.45,15.47,57.48,19.81,85.74,8.26,9.18,5.62,13.78,11.72,26.08,12.4,12.3.68,24.36-2.14,36.74-2.2,20.29-.09,37.46,7.08,52.63,13.85,30.28,13.52,60.55,27.03,90.83,40.55,13,5.8,28.71,12.02,45.82,10.42,7.35-.69,13.98-2.79,21.37-3.35,11.51-.86,22.61,2.13,32.72,5.02,31.84,9.1,63.68,18.2,95.52,27.31,12.5,3.57,26.1,7.27,40.4,6.46,8.97-.51,17.13-2.76,25.02-4.97,29.4-8.22,58.8-16.45,88.21-24.67,21.81-6.1,44.06-12.28,68.52-14.76,35.78-3.63,72.86.99,107.04,7.43,40.69,7.66,79.44,17.91,121.05,24.19,59.24,8.93,124.82,9.29,181.8-2.79,40.37-8.56,74.8-22.87,113.7-33,66.95-17.45,149.03-23.28,199.73-51.32,3.69-2.04,7.33-4.25,12.31-5.41,7.3-1.71,15.85-.86,23.68.08,70.43,8.48,138.63,21.61,202.27,38.96,12.26,3.34,25.06,7.21,31.07,13.53,4.37,4.6,4.53,9.88,4.54,14.97.06,62.25-10.54,124.49-31.65,185.83-1.38,4.02-3,8.24-8.29,11.33-6.61,3.86-17.33,5.07-27.3,6.01-449.69,42.56-910.75-6.44-1367.31-22.09-158.65-5.44-317.73-6.83-476.72-8.21-7.95-31.29-15.91-62.59-23.86-93.88-3.55-13.98-13.4-25.72-20.15-39.04-2.22-4.37-7.36-44.66-2.34-45.72Z" style="fill:#fdf2ed; stroke-width:0px;"/><path d="m1628.37,167.34c-21.47,16.3-67.61,16.55-106.38,18.3-68.9,3.1-134.69,16.4-194.53,33.82-14.21,4.14-28.5,8.58-44.59,10.25-18.92,1.96-38.69-.1-57.79,1.37-34.49,2.64-61.15,16.06-92.08,24.15-41.68,10.9-90.46,11.94-137.43,12.74-20.65.35-41.68.69-61.61-2.05-28.31-3.89-51.73-13.56-75.93-21.9-72.91-25.13-160.18-39.63-248.57-41.31-16.02-.3-33-.32-46.64-4.55-11.23-3.48-18.53-9.31-27.11-14.35-24.78-14.52-63.18-22.91-101.24-22.12-12.99.27-25.91,1.54-38.9,1.25-15.73-.36-30.86-3.01-45.56-5.83-63.28-12.14-129.46-28.3-195.61-20.95-63.84,7.1-120.18,35.6-184.21,28.93-27.58,60.96-32.48,124.49-14.37,186.33,511.39,52.3,1037.93,47.43,1559.33,58.93,70.47,1.55,142.09,3.36,210.63-5.01,68.54-8.37,134.89-28.59,165.59-60.47,6.18-6.42,11.01-13.34,20.49-18.64,24.51-13.72,78.2-16.9,78.59-35.33.29-13.63-31.97-21.48-41.78-34.19-14.68-19.03,30.02-59.58-38.4-62.04-60.89-2.18-119.25-3.99-179.14-11.31-9.24-1.13-102.15-16.5-102.77-16.03Z" style="fill:#f8d5c3; stroke-width:0px;"/><path d="m1805.62,253.63c-26.42-.32-51.83,4.6-76.43,9.45-63.49,12.52-126.97,25.03-190.46,37.55-62.55,12.33-135.66,24.39-193.93,7.58-15.06-4.35-28.34-10.49-44.93-13.1-36.41-5.72-84.67,5.84-109.71-8.61-12.21-7.05-19.21-19.95-37.56-18.43-7.58.63-13.16,3.86-20.2,5.41-14.12,3.1-29.91-1.07-45.04-2.55-42.29-4.13-80.27,13.08-122.2,18.06-75.27,8.93-143.37-21.76-214.58-36.9-116.67-24.81-250.05-7.52-371.84,10.04-147.08,21.2-294.15,42.4-441.23,63.6,8.24,47.58,22.88,94.88,43.79,141.48-34.21,10.88-72.65,18.39-112.51,21.98,708.14.46,1426.28,58.15,2118.37-17.09-12.97-31.91-25.93-63.81-38.9-95.72-3.6-8.86-6.61-19.05,4.66-26.09,6.1-3.81,15.49-6,21.84-9.71,22.2-12.99.23-38.86,30.25-46.97.56-.15-30.3-13.62-36.99-14.56-18.13-2.55-36.04-2.69-54.17-6.39-35.19-7.19-69.05-18.56-108.21-19.03Z" style="fill:#f2ab87; stroke-width:0px;"/></g></g></svg>