<?xml version="1.0" encoding="UTF-8"?><svg xmlns="http://www.w3.org/2000/svg" xmlns:xlink="http://www.w3.org/1999/xlink" viewBox="0 0 242.41 227.49"><defs><linearGradient id="Nepojmenovaný_přechod_18" x1="160.24" y1="149.04" x2="228.24" y2="101.7" gradientUnits="userSpaceOnUse"><stop offset="0" stop-color="#54361c"/><stop offset="1" stop-color="#cc6d1e"/></linearGradient><linearGradient id="Nepojmenovaný_přechod" x1="122.87" y1="167.49" x2="119.73" y2="32.43" gradientUnits="userSpaceOnUse"><stop offset="0" stop-color="#fff"/><stop offset="1" stop-color="#1d1d1b"/></linearGradient><filter id="drop-shadow-1" filterUnits="userSpaceOnUse"><feOffset dx="0" dy="2"/><feGaussianBlur result="blur" stdDeviation="2"/><feFlood flood-color="#51280c" flood-opacity=".25"/><feComposite in2="blur" operator="in"/><feComposite in="SourceGraphic"/></filter></defs><g style="isolation:isolate;"><g id="Vrstva_2"><g id="Vrstva_3"><path d="m163.51,167.29s56.4,1.57,73.4-22.21c17-23.78-30.07-47.68-30.07-47.68l-53.89,5.11,10.56,64.78Z" style="fill:url(#Nepojmenovaný_přechod_18); stroke-width:0px;"/><rect x="66.52" y="9.8" width="142.89" height="217.69" rx="34.67" ry="34.67" style="fill:#051f1f; stroke-width:0px;"/><path d="m100.12,187.62c-1.6-.16-3.56-.41-3.56-2.27,0-1.65,1.75-2.58,3.82-2.58s3.82.72,3.87,2.53h6.81c.26-5.26-4.85-7.95-10.78-7.95s-10.68,2.63-10.68,8.21c0,6.04,6.5,6.71,11.51,7.38,1.75.26,3.56.46,3.56,2.48-.05,2.22-2.17,2.84-4.28,2.84-2.06.05-4.02-.88-4.08-2.94h-7.22c.26,6.6,5.99,8.26,11.61,8.26s11.04-2.22,11.2-8.15c.15-6.66-6.19-7.12-11.76-7.79" style="fill:#374c4c; stroke-width:0px;"/><path d="m149.24,174.93l-.05,3.15h-4.7v5.11h4.59v19.71h7.02v-19.71h7.84v-5.11h-7.84v-2.99c0-5.32,4.7-5.11,8.41-3.72l.72-5.37c-8.15-2.48-16-1.24-16,8.93" style="fill:#374c4c; stroke-width:0px;"/><path d="m187.09,197.06c-4.13,1.5-8.41,1.24-8.41-3.92v-9.65h8.1v-5.42h-8.1v-7.74h-5.78l-.77,7.74h-5.21v4.95l4.7.46v9.8c0,10.22,7.59,11.61,16.15,9.24l-.67-5.47Z" style="fill:#374c4c; stroke-width:0px;"/><path d="m93.84,171.29v-6.67h1.69c1.97,0,3.05,1.57,3.05,3.31s-1.04,3.36-3.05,3.36h-1.69Zm7.06-3.37c0-2.77-1.86-5.39-5.33-5.39h-4.04v10.86h4.04c3.51,0,5.38-2.69,5.33-5.47" style="fill:#374c4c; stroke-width:0px;"/><path d="m105.14,164.53h2.33c.99,0,1.6.73,1.6,1.65.02.93-.62,1.69-1.6,1.69h-2.33v-3.34Zm.03,5.25h1.94l2.24,3.59h2.49v-.33l-2.46-3.62c1.24-.61,1.94-1.82,1.94-3.2,0-1.93-1.35-3.73-3.84-3.73-1.55-.02-3.09,0-4.65,0v10.88h2.33v-3.59Z" style="fill:#374c4c; stroke-width:0px;"/><path d="m115.21,167.95c0-2.3,1.52-3.47,3.23-3.47s3.22,1.15,3.22,3.47-1.54,3.5-3.23,3.5-3.22-1.12-3.22-3.5m8.77,0c0-3.65-2.69-5.61-5.53-5.61s-5.58,1.94-5.58,5.61,2.63,5.63,5.53,5.63c3.29,0,5.58-2.32,5.58-5.63" style="fill:#374c4c; stroke-width:0px;"/><polygon points="128.2 167.17 134.36 173.42 135.06 173.42 135.06 162.51 132.72 162.51 132.72 168.68 126.61 162.46 125.88 162.46 125.88 173.39 128.2 173.39 128.2 167.17" style="fill:#374c4c; stroke-width:0px;"/><polygon points="139.92 168.79 143.96 168.79 143.96 166.76 139.92 166.76 139.92 164.55 144.24 164.55 144.24 162.51 137.57 162.51 137.57 173.39 144.36 173.39 144.36 171.28 139.92 171.28 139.92 168.79" style="fill:#374c4c; stroke-width:0px;"/><path d="m129.06,203.55h0c7.24,0,13.1-5.87,13.11-13.1h-13.11v13.1Z" style="fill:#374c4c; stroke-width:0px;"/><path d="m129.06,177.35h0c-7.24,0-13.1,5.87-13.11,13.1h13.11v-13.1Z" style="fill:#374c4c; stroke-width:0px;"/><path d="m118.86,110.47s29.51-2.07,52.24-.08c22.73,1.98,47.52,8.36,56.37,13.64,14.84,8.86,8.84,21.82,8.84,21.82,0,0,4.96-4.71,5.62-8.51s.08-9.75.25-12.89c.17-3.14-3.72-9.09-3.72-9.09l-11.32-6.28-86.79-15.21-19.75,3.31-3.55,3.8,1.82,9.51Z" style="fill:#cc6d1e; stroke-width:0px;"/><polygon points="31.41 67.08 .22 70.38 0 81.13 129.94 151.88 132.07 142.64 129.11 136.67 31.41 67.08" style="fill:#cc6d1e; stroke-width:0px;"/><path d="m115.89,0L.22,70.38l131.85,72.26-12.9-38.95s45.98-3.97,80.94,3.99c33,7.51,42.3,15.93,41.97,28.74,0,0,2.09-18.85-4.19-32.26-7.04-15.02-18.3-34.25-47.39-47.39-29.09-13.14-52.55-17.83-62.64-19.24-10.09-1.41-21.12-3.28-21.12-3.28L115.89,0Z" style="fill:#f2ab87; stroke-width:0px;"/><path d="m242.27,125.44c-2.71-14.02-15.22-39.91-82.08-53.57-73.95-15.11-123.65-7.15-159.48-1.78l-.48.29,131.85,72.26-12.9-38.95s45.98-3.97,80.94,3.99c33,7.51,42.3,15.93,41.97,28.74,0,0,.41-4.65.19-10.98Z" style="fill:url(#Nepojmenovaný_přechod); mix-blend-mode:soft-light; stroke-width:0px;"/><g style="filter:url(#drop-shadow-1);"><path d="m79.05,40.36c-3.96,5.38-5.95,8.14-9.95,13.83-1.94-.09-2.91-.14-4.86-.21-.4-5.97-.59-8.97-.98-15.01,1.85.14,2.77.21,4.62.36.2,3.66.3,5.48.5,9.12,2.43-3.47,3.64-5.18,6.05-8.54,1.85.17,2.77.26,4.61.45Z" style="fill:#fff; stroke-width:0px;"/><path d="m93.84,42.06c-4.12,5.28-6.2,8.01-10.35,13.63-.86,1.14-1.65,2.03-2.38,2.66-.73.63-1.48,1.07-2.24,1.32s-1.62.35-2.6.31c-.71-.03-1.4-.18-2.07-.44-.67-.26-1.19-.59-1.55-.98,1.02-1.39,1.53-2.08,2.54-3.46.52.58,1.18.89,1.97.94.43.03.8-.05,1.12-.24.32-.18.66-.49,1.01-.93-.49-5.81-.74-8.73-1.22-14.62,1.86.19,2.78.28,4.64.49.23,3.55.35,5.31.58,8.83,2.4-3.29,3.6-4.9,5.99-8.08,1.82.22,2.74.33,4.56.57Z" style="fill:#fff; stroke-width:0px;"/><path d="m105.2,46.4c-3.3,2.41-4.95,3.65-8.27,6.22,2.49.27,3.73.41,6.22.7-.46,1.36-.69,2.04-1.16,3.41-4.92-.52-7.38-.76-12.3-1.17.36-1.12.54-1.68.9-2.8,3.34-2.66,5.01-3.95,8.34-6.45-2.32-.3-3.47-.44-5.79-.71.46-1.39.68-2.09,1.14-3.48,4.74.61,7.1.94,11.83,1.65-.36,1.05-.54,1.57-.91,2.63Z" style="fill:#fff; stroke-width:0px;"/><path d="m115.85,51.11c1.42,3.12,2.13,4.67,3.55,7.73-2.18-.3-3.27-.44-5.45-.72-.87-1.89-1.3-2.85-2.16-4.76-.85.55-1.27.82-2.12,1.38-.37,1.1-.55,1.65-.92,2.75-1.87-.22-2.8-.33-4.67-.53,2.38-7.09,3.56-10.59,5.92-17.5,1.86.32,2.79.48,4.64.81-1.22,3.53-1.83,5.3-3.05,8.88,2.37-1.46,3.56-2.16,5.92-3.54,2.35.4,3.52.61,5.86,1.03-3,1.73-4.5,2.62-7.52,4.48Z" style="fill:#fff; stroke-width:0px;"/><path d="m123.64,58.93c-.99-.62-1.71-1.41-2.17-2.35-.46-.95-.62-2-.47-3.15.18-1.38.69-2.56,1.53-3.54.84-.98,1.92-1.67,3.24-2.07,1.32-.4,2.75-.45,4.29-.15,1.4.27,2.59.74,3.57,1.4.98.66,1.7,1.46,2.17,2.39.46.93.62,1.94.48,3.03-.17,1.31-.67,2.43-1.51,3.37-.84.94-1.91,1.61-3.22,2.03-1.31.42-2.75.51-4.32.27-1.41-.21-2.6-.62-3.59-1.24Zm6.7-2.77c.67-.53,1.07-1.3,1.2-2.3.09-.72-.05-1.33-.44-1.83-.39-.5-.97-.82-1.75-.97-.93-.17-1.73.01-2.4.55-.67.54-1.07,1.33-1.2,2.37-.09.73.05,1.35.44,1.83.39.49.97.8,1.75.92.93.15,1.73-.04,2.4-.57Z" style="fill:#fff; stroke-width:0px;"/><path d="m154.19,53.07c-1.64,4.27-2.46,6.43-4.11,10.8-1.76-.34-2.63-.5-4.39-.82.17-.46.25-.69.42-1.15-.63.36-1.32.6-2.05.7-.74.1-1.48.09-2.23-.04-1.45-.26-2.56-.8-3.32-1.65-.76-.85-1.06-1.93-.89-3.24.06-.48.18-.97.36-1.44.93-2.52,1.39-3.78,2.31-6.27,1.85.39,2.77.59,4.62,1-.86,2.3-1.29,3.46-2.15,5.78-.1.26-.17.52-.2.78-.13,1.03.39,1.65,1.58,1.88.8.15,1.48.06,2.06-.27.58-.33,1.02-.9,1.32-1.72.82-2.18,1.23-3.26,2.05-5.41,1.85.42,2.77.64,4.61,1.07Z" style="fill:#fff; stroke-width:0px;"/><path d="m154.95,64.7c-1.02-.42-1.8-.84-2.34-1.28.82-.98,1.23-1.46,2.04-2.43.56.45,1.24.85,2.04,1.21.8.36,1.6.63,2.39.8,1.41.31,2.15.2,2.22-.33.03-.22-.12-.41-.43-.59-.32-.18-.85-.39-1.55-.65-.95-.35-1.73-.7-2.33-1.01-.6-.31-1.11-.72-1.52-1.24-.42-.52-.57-1.15-.48-1.9.17-1.3.95-2.16,2.35-2.56,1.39-.4,3.12-.33,5.19.19.93.24,1.83.55,2.68.92.85.38,1.58.78,2.19,1.22-.79.89-1.18,1.34-1.97,2.24-1.03-.82-2.29-1.41-3.79-1.78-.71-.17-1.25-.22-1.62-.15-.37.07-.57.23-.6.48-.03.22.12.42.43.6.32.18.85.43,1.59.72.91.36,1.68.7,2.28,1.02s1.1.74,1.51,1.25c.41.51.57,1.11.47,1.8-.17,1.25-.95,2.06-2.35,2.46-1.4.4-3.12.39-5.17-.03-1.13-.23-2.21-.56-3.23-.98Zm13.8-12.43c-1.63.79-2.44,1.2-4.07,2.04-1.59-.41-2.38-.62-3.97-1.02-.88-1.5-1.32-2.26-2.2-3.78,1.19.31,1.79.47,2.97.78.64.81.97,1.22,1.61,2.02,1.01-.37,1.51-.55,2.52-.91,1.26.34,1.88.52,3.14.87Z" style="fill:#fff; stroke-width:0px;"/><path d="m181.49,66.44c-3.84-1.02-5.76-1.51-9.61-2.46,0,1.19.92,1.99,2.75,2.44.58.14,1.15.21,1.72.21.57,0,1.09-.09,1.56-.26.64,1.1.96,1.65,1.61,2.74-1.65.5-3.57.5-5.76-.01-1.39-.33-2.59-.8-3.59-1.45-1.01-.64-1.75-1.39-2.22-2.26-.48-.87-.65-1.8-.52-2.79.16-1.18.63-2.16,1.43-2.93.79-.77,1.82-1.26,3.09-1.47,1.27-.21,2.67-.09,4.22.34,1.3.36,2.41.87,3.33,1.52.92.65,1.6,1.38,2.03,2.21.43.82.59,1.68.47,2.57-.07.49-.23,1.02-.49,1.6Zm-7.83-5.38c-.54.19-.96.53-1.26,1.03,2.16.55,3.23.83,5.38,1.4.09-.54-.07-1.03-.48-1.46-.41-.43-.98-.75-1.72-.95-.74-.2-1.38-.21-1.92-.02Z" style="fill:#fff; stroke-width:0px;"/><path d="m188.37,68.73c-.06.16-.09.27-.09.32-.08.56.29.95,1.09,1.17.43.12.9.15,1.41.09.1,1.01.15,1.52.26,2.53-.95.14-2.11.04-3.47-.32-1.35-.35-2.39-.88-3.11-1.61-.73-.72-1.03-1.56-.9-2.49.05-.36.13-.67.25-.92.53-1.24.79-1.86,1.31-3.09-.77-.22-1.15-.33-1.92-.54.42-.98.63-1.47,1.05-2.45.76.22,1.14.33,1.9.56.41-.96.61-1.44,1.02-2.4,1.82.56,2.73.84,4.55,1.42-.41.93-.61,1.4-1.02,2.35,1.18.36,1.77.54,2.95.9-.41.94-.61,1.41-1.02,2.35-1.18-.35-1.77-.53-2.95-.87-.52,1.2-.78,1.8-1.3,3Z" style="fill:#fff; stroke-width:0px;"/><path d="m77.72,73.77c-4.85,4.31-7.29,6.55-12.17,11.2,3.68-.12,5.51-.17,9.19-.23-.68,2.17-1.02,3.26-1.71,5.45-7.17.24-10.76.42-17.93.88.55-1.82.82-2.74,1.37-4.55,4.9-4.84,7.34-7.17,12.21-11.67-3.38.01-5.07.03-8.44.09.69-2.26,1.04-3.39,1.73-5.64,6.85,0,10.27.04,17.11.23-.54,1.69-.8,2.54-1.34,4.24Z" style="fill:#051f1f; stroke-width:0px;"/><path d="m81.41,69.6c3.5.11,5.25.18,8.75.35,2.03.1,3.74.53,5.15,1.28,1.4.75,2.42,1.77,3.06,3.05.64,1.28.85,2.75.64,4.43-.28,2.23-1.05,4.17-2.3,5.84-1.25,1.67-2.86,2.97-4.82,3.89-1.96.93-4.13,1.41-6.48,1.44-4.18.05-6.27.1-10.45.23,2.6-8.31,3.89-12.41,6.47-20.52Zm4.87,15.02c1.69,0,3.07-.53,4.14-1.6,1.07-1.07,1.72-2.45,1.93-4.14.14-1.15-.09-2.04-.71-2.68-.62-.65-1.58-.99-2.89-1.03-1-.03-1.5-.05-2.5-.07-1.21,3.79-1.82,5.7-3.04,9.54,1.22,0,1.84,0,3.06,0Z" style="fill:#051f1f; stroke-width:0px;"/><path d="m112.27,86.91c-2.96-.13-4.45-.18-7.41-.27-.95,1.3-1.42,1.96-2.37,3.27-2.77-.05-4.16-.06-6.93-.07,5.95-7.78,8.91-11.49,14.8-18.58,2.56.21,3.85.33,6.41.57.89,7.53,1.34,11.24,2.25,18.6-2.61-.12-3.91-.17-6.52-.26-.09-1.3-.14-1.95-.23-3.26Zm-.34-4.56c-.13-1.92-.2-2.89-.33-4.82-1.38,1.83-2.08,2.76-3.47,4.63,1.52.07,2.28.11,3.8.19Z" style="fill:#051f1f; stroke-width:0px;"/><path d="m140.3,84.22c-1.06,1.03-2.45,1.75-4.18,2.15,1.03,2.12,1.55,3.18,2.58,5.27-2.71-.21-4.06-.31-6.78-.49-.87-1.83-1.3-2.75-2.17-4.6-.64-.05-.96-.07-1.6-.12-.62,1.75-.92,2.63-1.54,4.39-2.62-.15-3.92-.22-6.54-.34,2.48-7.17,3.72-10.71,6.18-17.67,3.46.38,5.19.59,8.65,1.02,2.53.32,4.43,1.08,5.71,2.24,1.27,1.16,1.8,2.62,1.57,4.37-.19,1.5-.82,2.75-1.87,3.78Zm-6.98-5.99c-.87-.1-1.31-.14-2.18-.23-.58,1.61-.86,2.41-1.44,4.03,1.07.1,1.61.15,2.68.25.9.09,1.63-.05,2.18-.4.55-.35.87-.89.96-1.62.15-1.17-.58-1.85-2.2-2.02Z" style="fill:#051f1f; stroke-width:0px;"/><path d="m169.66,79.27c-2.32,5.86-3.49,8.84-5.83,14.91-2.36-.29-3.54-.43-5.91-.7,1.07-2.83,1.6-4.24,2.66-7.03-2.47,2.01-3.7,3.04-6.18,5.17-1.14-.13-1.72-.19-2.86-.31-.88-2.48-1.32-3.73-2.2-6.25-1.08,2.88-1.62,4.34-2.71,7.26-2.37-.22-3.56-.32-5.94-.52,2.43-6.65,3.64-9.92,6.04-16.37,2.11.31,3.16.47,5.27.8,1.21,3.74,1.82,5.59,3.03,9.25,3.67-3.01,5.5-4.45,9.14-7.21,2.2.39,3.29.59,5.49,1Z" style="fill:#051f1f; stroke-width:0px;"/><path d="m181.27,93.99c-2.91-.48-4.37-.71-7.29-1.15-.91.93-1.36,1.41-2.27,2.36-2.73-.37-4.1-.55-6.83-.89,5.72-5.62,8.56-8.25,14.21-13.19,2.52.52,3.78.78,6.3,1.33,1.02,6.17,1.54,9.22,2.58,15.22-2.56-.43-3.84-.63-6.41-1.03-.11-1.06-.17-1.59-.29-2.65Zm-.42-3.71c-.17-1.57-.25-2.35-.42-3.93-1.32,1.29-1.99,1.95-3.32,3.28,1.5.25,2.24.38,3.74.65Z" style="fill:#051f1f; stroke-width:0px;"/></g></g></g></g></svg>